<svg width="800" height="600" viewBox="0 0 800 600" fill="none" xmlns="http://www.w3.org/2000/svg">
<rect width="800" height="600" fill="white"/>
<g filter="url(#filter0_d_229_87)">
<path d="M151 59C151 53.4771 155.477 49 161 49H641C646.523 49 651 53.4772 651 59V439C651 444.523 646.523 449 641 449H161C155.477 449 151 444.523 151 439V59Z" fill="#264D59"/>
<path d="M161 49.5H641C646.247 49.5 650.5 53.7533 650.5 59V61C650.5 66.2467 646.247 70.5 641 70.5H161C155.753 70.5 151.5 66.2467 151.5 61V59C151.5 53.7533 155.753 49.5 161 49.5Z" fill="#F6F6F6" stroke="#A5A3A3"/>
<ellipse cx="169.766" cy="59.8235" rx="9.76562" ry="8.82353" fill="#F2F2F2"/>
<ellipse cx="169.766" cy="59.823" rx="8.49185" ry="7.67263" fill="#6FCF97"/>
<ellipse cx="200.766" cy="59.8235" rx="9.76562" ry="8.82353" fill="#F2F2F2"/>
<ellipse cx="200.766" cy="59.823" rx="8.49185" ry="7.67263" fill="#F2C94C"/>
<ellipse cx="231.766" cy="59.8235" rx="9.76562" ry="8.82353" fill="#F2F2F2"/>
<ellipse cx="231.766" cy="59.823" rx="8.49185" ry="7.67263" fill="#EB5757"/>
<rect x="386" y="450" width="30" height="32" fill="#BEBCBC"/>
<path d="M366 482L386 450V482H366Z" fill="#BEBCBC"/>
<path d="M433.582 482L415.813 450V482H433.582Z" fill="#BEBCBC"/>
<rect x="304" y="481.372" width="191" height="15.6279" fill="#A5A3A3"/>
<rect x="274" y="302" width="250" height="42.5806" fill="#F9E07F"/>
<rect x="274" y="379.419" width="110.701" height="42.5806" fill="#F9AD6A"/>
<rect x="413.299" y="378.645" width="110.701" height="42.5806" fill="#F9AD6A"/>
<rect x="360.716" y="356.968" width="76.5683" height="9.29032" fill="#A5A3A3"/>
<rect x="360.716" y="356.968" width="76.5683" height="9.29032" fill="#A5A3A3"/>
</g>
<g filter="url(#filter1_d_229_87)">
<path d="M44 264C44 255.716 50.7157 249 59 249H179C187.284 249 194 255.716 194 264V534C194 542.284 187.284 549 179 549H59C50.7157 549 44 542.284 44 534V264Z" fill="#A5A3A3"/>
<rect x="44" y="273.926" width="150" height="227.003" fill="#264D59"/>
<rect x="110" y="513.392" width="17.7515" height="17.8042" rx="8.87574" fill="#F7F7F7"/>
<path d="M63.2642 322.961V308.416H69.0029C70.1014 308.416 71.0389 308.612 71.8154 309.005C72.5966 309.394 73.1908 309.945 73.598 310.66C74.01 311.371 74.2159 312.206 74.2159 313.167C74.2159 314.133 74.0076 314.964 73.5909 315.66C73.1743 316.352 72.5706 316.882 71.7799 317.251C70.9939 317.621 70.0422 317.805 68.9247 317.805H65.0824V315.334H68.4276C69.0147 315.334 69.5024 315.253 69.8907 315.092C70.2789 314.931 70.5677 314.69 70.7571 314.368C70.9513 314.046 71.0483 313.646 71.0483 313.167C71.0483 312.684 70.9513 312.277 70.7571 311.946C70.5677 311.614 70.2765 311.363 69.8836 311.193C69.4953 311.018 69.0052 310.93 68.4134 310.93H66.3395V322.961H63.2642ZM71.1193 316.342L74.7344 322.961H71.3395L67.8026 316.342H71.1193ZM81.1282 323.174C80.0061 323.174 79.0402 322.947 78.2305 322.493C77.4256 322.033 76.8053 321.385 76.3697 320.547C75.9341 319.704 75.7163 318.707 75.7163 317.557C75.7163 316.434 75.9341 315.45 76.3697 314.602C76.8053 313.755 77.4185 313.094 78.2092 312.621C79.0046 312.147 79.9374 311.91 81.0075 311.91C81.7272 311.91 82.3972 312.026 83.0174 312.258C83.6424 312.486 84.1869 312.829 84.651 313.288C85.1197 313.747 85.4843 314.325 85.7447 315.021C86.0051 315.712 86.1353 316.522 86.1353 317.45V318.281H76.9237V316.406H83.2873C83.2873 315.97 83.1926 315.585 83.0032 315.248C82.8138 314.912 82.551 314.649 82.2149 314.46C81.8834 314.266 81.4975 314.169 81.0572 314.169C80.5979 314.169 80.1907 314.275 79.8356 314.488C79.4852 314.697 79.2106 314.978 79.0117 315.334C78.8129 315.684 78.7111 316.075 78.7064 316.505V318.288C78.7064 318.828 78.8058 319.294 79.0046 319.687C79.2082 320.08 79.4947 320.383 79.864 320.596C80.2333 320.809 80.6713 320.916 81.1779 320.916C81.5141 320.916 81.8219 320.869 82.1012 320.774C82.3806 320.679 82.6197 320.537 82.8186 320.348C83.0174 320.158 83.1689 319.926 83.2731 319.652L86.0714 319.836C85.9294 320.509 85.6382 321.096 85.1978 321.598C84.7622 322.095 84.1988 322.483 83.5075 322.763C82.8209 323.037 82.0278 323.174 81.1282 323.174ZM97.1865 315.163L94.4166 315.334C94.3692 315.097 94.2674 314.884 94.1112 314.694C93.9549 314.5 93.749 314.346 93.4933 314.233C93.2423 314.114 92.9417 314.055 92.5913 314.055C92.1225 314.055 91.7272 314.155 91.4052 314.353C91.0832 314.548 90.9223 314.808 90.9223 315.135C90.9223 315.395 91.0264 315.615 91.2348 315.795C91.4431 315.975 91.8006 316.12 92.3072 316.228L94.2816 316.626C95.3422 316.844 96.133 317.194 96.6538 317.677C97.1746 318.16 97.435 318.795 97.435 319.581C97.435 320.296 97.2243 320.923 96.8029 321.463C96.3863 322.003 95.8134 322.424 95.0842 322.727C94.3598 323.025 93.5241 323.174 92.5771 323.174C91.133 323.174 89.9824 322.874 89.1254 322.273C88.2731 321.666 87.7736 320.843 87.6268 319.801L90.6027 319.645C90.6926 320.085 90.9104 320.421 91.2561 320.653C91.6017 320.88 92.0444 320.994 92.5842 320.994C93.1145 320.994 93.5406 320.892 93.8626 320.689C94.1893 320.48 94.355 320.213 94.3598 319.886C94.355 319.612 94.239 319.387 94.0117 319.211C93.7845 319.032 93.4341 318.894 92.9606 318.799L91.0714 318.423C90.0061 318.21 89.213 317.841 88.6921 317.315C88.176 316.79 87.918 316.12 87.918 315.305C87.918 314.604 88.1074 314.001 88.4862 313.494C88.8697 312.987 89.4071 312.597 90.0984 312.322C90.7944 312.048 91.6088 311.91 92.5416 311.91C93.9194 311.91 95.0037 312.201 95.7944 312.784C96.5899 313.366 97.0539 314.159 97.1865 315.163ZM99.3402 327.052V312.052H102.323V313.885H102.458C102.591 313.591 102.782 313.293 103.033 312.99C103.289 312.682 103.621 312.426 104.028 312.223C104.44 312.014 104.951 311.91 105.562 311.91C106.357 311.91 107.091 312.119 107.764 312.535C108.436 312.947 108.973 313.57 109.376 314.403C109.778 315.232 109.979 316.271 109.979 317.521C109.979 318.738 109.783 319.765 109.39 320.603C109.002 321.437 108.471 322.069 107.799 322.5C107.131 322.926 106.383 323.139 105.555 323.139C104.968 323.139 104.468 323.042 104.056 322.848C103.649 322.654 103.315 322.41 103.055 322.116C102.794 321.818 102.595 321.517 102.458 321.214H102.366V327.052H99.3402ZM102.302 317.507C102.302 318.156 102.392 318.721 102.572 319.204C102.752 319.687 103.012 320.064 103.353 320.334C103.694 320.599 104.108 320.731 104.596 320.731C105.088 320.731 105.505 320.596 105.846 320.326C106.187 320.052 106.445 319.673 106.62 319.19C106.8 318.702 106.89 318.141 106.89 317.507C106.89 316.877 106.802 316.323 106.627 315.845C106.452 315.367 106.194 314.993 105.853 314.723C105.512 314.453 105.093 314.318 104.596 314.318C104.103 314.318 103.687 314.448 103.346 314.709C103.01 314.969 102.752 315.338 102.572 315.817C102.392 316.295 102.302 316.858 102.302 317.507ZM116.925 323.174C115.822 323.174 114.868 322.94 114.063 322.471C113.263 321.998 112.645 321.34 112.21 320.497C111.774 319.649 111.556 318.667 111.556 317.549C111.556 316.423 111.774 315.438 112.21 314.595C112.645 313.747 113.263 313.089 114.063 312.621C114.868 312.147 115.822 311.91 116.925 311.91C118.029 311.91 118.98 312.147 119.781 312.621C120.585 313.089 121.206 313.747 121.641 314.595C122.077 315.438 122.295 316.423 122.295 317.549C122.295 318.667 122.077 319.649 121.641 320.497C121.206 321.34 120.585 321.998 119.781 322.471C118.98 322.94 118.029 323.174 116.925 323.174ZM116.94 320.831C117.442 320.831 117.861 320.689 118.197 320.405C118.533 320.116 118.786 319.723 118.957 319.226C119.132 318.728 119.219 318.163 119.219 317.528C119.219 316.894 119.132 316.328 118.957 315.831C118.786 315.334 118.533 314.941 118.197 314.652C117.861 314.363 117.442 314.219 116.94 314.219C116.433 314.219 116.007 314.363 115.661 314.652C115.32 314.941 115.062 315.334 114.887 315.831C114.717 316.328 114.631 316.894 114.631 317.528C114.631 318.163 114.717 318.728 114.887 319.226C115.062 319.723 115.32 320.116 115.661 320.405C116.007 320.689 116.433 320.831 116.94 320.831ZM127.288 316.655V322.961H124.262V312.052H127.146V313.977H127.273C127.515 313.343 127.92 312.841 128.488 312.471C129.056 312.097 129.745 311.91 130.555 311.91C131.312 311.91 131.973 312.076 132.536 312.407C133.1 312.739 133.538 313.212 133.85 313.828C134.163 314.439 134.319 315.168 134.319 316.015V322.961H131.293V316.555C131.298 315.888 131.128 315.367 130.782 314.993C130.436 314.614 129.96 314.424 129.354 314.424C128.947 314.424 128.587 314.512 128.275 314.687C127.967 314.862 127.726 315.118 127.55 315.454C127.38 315.786 127.292 316.186 127.288 316.655ZM145.78 315.163L143.01 315.334C142.963 315.097 142.861 314.884 142.705 314.694C142.549 314.5 142.343 314.346 142.087 314.233C141.836 314.114 141.535 314.055 141.185 314.055C140.716 314.055 140.321 314.155 139.999 314.353C139.677 314.548 139.516 314.808 139.516 315.135C139.516 315.395 139.62 315.615 139.829 315.795C140.037 315.975 140.394 316.12 140.901 316.228L142.875 316.626C143.936 316.844 144.727 317.194 145.248 317.677C145.768 318.16 146.029 318.795 146.029 319.581C146.029 320.296 145.818 320.923 145.397 321.463C144.98 322.003 144.407 322.424 143.678 322.727C142.954 323.025 142.118 323.174 141.171 323.174C139.727 323.174 138.576 322.874 137.719 322.273C136.867 321.666 136.367 320.843 136.221 319.801L139.196 319.645C139.286 320.085 139.504 320.421 139.85 320.653C140.195 320.88 140.638 320.994 141.178 320.994C141.708 320.994 142.134 320.892 142.456 320.689C142.783 320.48 142.949 320.213 142.954 319.886C142.949 319.612 142.833 319.387 142.605 319.211C142.378 319.032 142.028 318.894 141.554 318.799L139.665 318.423C138.6 318.21 137.807 317.841 137.286 317.315C136.77 316.79 136.512 316.12 136.512 315.305C136.512 314.604 136.701 314.001 137.08 313.494C137.463 312.987 138.001 312.597 138.692 312.322C139.388 312.048 140.203 311.91 141.135 311.91C142.513 311.91 143.597 312.201 144.388 312.784C145.184 313.366 145.648 314.159 145.78 315.163ZM147.934 322.961V312.052H150.96V322.961H147.934ZM149.454 310.646C149.004 310.646 148.618 310.497 148.296 310.199C147.979 309.896 147.82 309.533 147.82 309.112C147.82 308.695 147.979 308.338 148.296 308.04C148.618 307.737 149.004 307.585 149.454 307.585C149.904 307.585 150.287 307.737 150.604 308.04C150.926 308.338 151.087 308.695 151.087 309.112C151.087 309.533 150.926 309.896 150.604 310.199C150.287 310.497 149.904 310.646 149.454 310.646ZM163.554 312.052L159.74 322.961H156.331L152.517 312.052H155.713L157.978 319.858H158.092L160.351 312.052H163.554ZM169.722 323.174C168.6 323.174 167.634 322.947 166.824 322.493C166.019 322.033 165.399 321.385 164.963 320.547C164.528 319.704 164.31 318.707 164.31 317.557C164.31 316.434 164.528 315.45 164.963 314.602C165.399 313.755 166.012 313.094 166.803 312.621C167.598 312.147 168.531 311.91 169.601 311.91C170.321 311.91 170.991 312.026 171.611 312.258C172.236 312.486 172.781 312.829 173.245 313.288C173.713 313.747 174.078 314.325 174.338 315.021C174.599 315.712 174.729 316.522 174.729 317.45V318.281H165.517V316.406H171.881C171.881 315.97 171.786 315.585 171.597 315.248C171.408 314.912 171.145 314.649 170.809 314.46C170.477 314.266 170.091 314.169 169.651 314.169C169.192 314.169 168.784 314.275 168.429 314.488C168.079 314.697 167.804 314.978 167.605 315.334C167.407 315.684 167.305 316.075 167.3 316.505V318.288C167.3 318.828 167.4 319.294 167.598 319.687C167.802 320.08 168.088 320.383 168.458 320.596C168.827 320.809 169.265 320.916 169.772 320.916C170.108 320.916 170.416 320.869 170.695 320.774C170.974 320.679 171.213 320.537 171.412 320.348C171.611 320.158 171.763 319.926 171.867 319.652L174.665 319.836C174.523 320.509 174.232 321.096 173.792 321.598C173.356 322.095 172.793 322.483 172.101 322.763C171.415 323.037 170.622 323.174 169.722 323.174ZM68.4205 358.961H63.2642V344.416H68.4631C69.9262 344.416 71.1856 344.707 72.2415 345.29C73.2974 345.867 74.1094 346.698 74.6776 347.782C75.2505 348.867 75.537 350.164 75.537 351.674C75.537 353.19 75.2505 354.492 74.6776 355.581C74.1094 356.67 73.2926 357.505 72.2273 358.088C71.1667 358.67 69.8978 358.961 68.4205 358.961ZM66.3395 356.326H68.2926C69.2017 356.326 69.9664 356.165 70.5867 355.844C71.2117 355.517 71.6804 355.013 71.9929 354.331C72.3102 353.644 72.4688 352.759 72.4688 351.674C72.4688 350.6 72.3102 349.721 71.9929 349.04C71.6804 348.358 71.214 347.856 70.5938 347.534C69.9735 347.212 69.2088 347.051 68.2997 347.051H66.3395V356.326ZM82.7298 359.174C81.6076 359.174 80.6417 358.947 79.8321 358.493C79.0271 358.033 78.4069 357.385 77.9713 356.547C77.5357 355.704 77.3179 354.707 77.3179 353.557C77.3179 352.434 77.5357 351.45 77.9713 350.602C78.4069 349.755 79.02 349.094 79.8108 348.621C80.6062 348.147 81.539 347.91 82.6091 347.91C83.3287 347.91 83.9987 348.026 84.619 348.258C85.244 348.486 85.7885 348.829 86.2525 349.288C86.7213 349.747 87.0859 350.325 87.3463 351.021C87.6067 351.712 87.7369 352.522 87.7369 353.45V354.281H78.5252V352.406H84.8889C84.8889 351.97 84.7942 351.585 84.6048 351.248C84.4154 350.912 84.1526 350.649 83.8164 350.46C83.485 350.266 83.0991 350.169 82.6588 350.169C82.1995 350.169 81.7923 350.275 81.4372 350.488C81.0868 350.697 80.8122 350.978 80.6133 351.334C80.4144 351.684 80.3126 352.075 80.3079 352.505V354.288C80.3079 354.828 80.4073 355.294 80.6062 355.687C80.8098 356.08 81.0963 356.383 81.4656 356.596C81.8349 356.809 82.2729 356.916 82.7795 356.916C83.1157 356.916 83.4234 356.869 83.7028 356.774C83.9822 356.679 84.2213 356.537 84.4201 356.348C84.619 356.158 84.7705 355.926 84.8747 355.652L87.673 355.836C87.5309 356.509 87.2397 357.096 86.7994 357.598C86.3638 358.095 85.8003 358.483 85.1091 358.763C84.4225 359.037 83.6294 359.174 82.7298 359.174ZM98.788 351.163L96.0181 351.334C95.9708 351.097 95.869 350.884 95.7127 350.694C95.5565 350.5 95.3505 350.346 95.0948 350.233C94.8439 350.114 94.5432 350.055 94.1929 350.055C93.7241 350.055 93.3287 350.155 93.0068 350.353C92.6848 350.548 92.5238 350.808 92.5238 351.135C92.5238 351.395 92.628 351.615 92.8363 351.795C93.0447 351.975 93.4021 352.12 93.9088 352.228L95.8832 352.626C96.9438 352.844 97.7345 353.194 98.2554 353.677C98.7762 354.16 99.0366 354.795 99.0366 355.581C99.0366 356.296 98.8259 356.923 98.4045 357.463C97.9878 358.003 97.4149 358.424 96.6858 358.727C95.9613 359.025 95.1256 359.174 94.1787 359.174C92.7345 359.174 91.584 358.874 90.7269 358.273C89.8747 357.666 89.3751 356.843 89.2284 355.801L92.2042 355.645C92.2942 356.085 92.512 356.421 92.8576 356.653C93.2033 356.88 93.646 356.994 94.1858 356.994C94.7161 356.994 95.1422 356.892 95.4642 356.689C95.7909 356.48 95.9566 356.213 95.9613 355.886C95.9566 355.612 95.8406 355.387 95.6133 355.211C95.386 355.032 95.0357 354.894 94.5622 354.799L92.673 354.423C91.6076 354.21 90.8145 353.841 90.2937 353.315C89.7776 352.79 89.5196 352.12 89.5196 351.305C89.5196 350.604 89.709 350.001 90.0877 349.494C90.4713 348.987 91.0087 348.597 91.7 348.322C92.396 348.048 93.2104 347.91 94.1431 347.91C95.521 347.91 96.6053 348.201 97.396 348.784C98.1914 349.366 98.6555 350.159 98.788 351.163ZM100.942 358.961V348.052H103.967V358.961H100.942ZM102.462 346.646C102.012 346.646 101.626 346.497 101.304 346.199C100.987 345.896 100.828 345.533 100.828 345.112C100.828 344.695 100.987 344.338 101.304 344.04C101.626 343.737 102.012 343.585 102.462 343.585C102.911 343.585 103.295 343.737 103.612 344.04C103.934 344.338 104.095 344.695 104.095 345.112C104.095 345.533 103.934 345.896 103.612 346.199C103.295 346.497 102.911 346.646 102.462 346.646ZM111.306 363.28C110.326 363.28 109.485 363.145 108.784 362.875C108.088 362.61 107.534 362.247 107.123 361.788C106.711 361.329 106.443 360.813 106.32 360.24L109.118 359.863C109.204 360.081 109.338 360.285 109.523 360.474C109.708 360.664 109.952 360.815 110.255 360.929C110.562 361.047 110.936 361.106 111.377 361.106C112.035 361.106 112.577 360.945 113.003 360.623C113.434 360.306 113.65 359.773 113.65 359.025V357.03H113.522C113.389 357.333 113.19 357.619 112.925 357.889C112.66 358.159 112.319 358.379 111.902 358.549C111.486 358.72 110.989 358.805 110.411 358.805C109.592 358.805 108.846 358.616 108.174 358.237C107.506 357.853 106.973 357.269 106.576 356.483C106.183 355.692 105.986 354.693 105.986 353.486C105.986 352.25 106.187 351.218 106.59 350.389C106.992 349.56 107.527 348.94 108.195 348.528C108.867 348.116 109.604 347.91 110.404 347.91C111.015 347.91 111.526 348.014 111.938 348.223C112.35 348.426 112.681 348.682 112.932 348.99C113.188 349.293 113.384 349.591 113.522 349.885H113.635V348.052H116.64V359.068C116.64 359.996 116.412 360.773 115.958 361.398C115.503 362.023 114.873 362.491 114.069 362.804C113.268 363.121 112.347 363.28 111.306 363.28ZM111.37 356.532C111.857 356.532 112.269 356.412 112.605 356.17C112.946 355.924 113.207 355.574 113.387 355.119C113.571 354.66 113.664 354.111 113.664 353.471C113.664 352.832 113.574 352.278 113.394 351.809C113.214 351.336 112.954 350.969 112.613 350.709C112.272 350.448 111.857 350.318 111.37 350.318C110.873 350.318 110.454 350.453 110.113 350.723C109.772 350.988 109.514 351.357 109.338 351.831C109.163 352.304 109.076 352.851 109.076 353.471C109.076 354.101 109.163 354.646 109.338 355.105C109.518 355.559 109.776 355.912 110.113 356.163C110.454 356.409 110.873 356.532 111.37 356.532ZM122.073 352.655V358.961H119.047V348.052H121.931V349.977H122.059C122.3 349.343 122.705 348.841 123.273 348.471C123.841 348.097 124.53 347.91 125.34 347.91C126.097 347.91 126.758 348.076 127.321 348.407C127.885 348.739 128.323 349.212 128.635 349.828C128.948 350.439 129.104 351.168 129.104 352.015V358.961H126.079V352.555C126.083 351.888 125.913 351.367 125.567 350.993C125.222 350.614 124.746 350.424 124.14 350.424C123.732 350.424 123.373 350.512 123.06 350.687C122.752 350.862 122.511 351.118 122.336 351.454C122.165 351.786 122.078 352.186 122.073 352.655Z" fill="white"/>
</g>
<rect x="68.8521" y="391.433" width="100.296" height="31.1573" fill="#F9E07F"/>
<rect x="83.9408" y="449.297" width="69.2308" height="31.1573" fill="#F9AD6A"/>
<rect x="91.929" y="432.21" width="54.368" height="6.89193" fill="#A5A3A3"/>
<rect x="91.929" y="432.21" width="54.368" height="6.89193" fill="#A5A3A3"/>
<g filter="url(#filter2_d_229_87)">
<path d="M455 315C455 306.716 461.716 300 470 300H740C748.284 300 755 306.716 755 315V535C755 543.284 748.284 550 740 550H470C461.716 550 455 543.284 455 535V315Z" fill="#A5A3A3"/>
<rect x="455" y="321" width="300" height="210" fill="#264D59"/>
<rect x="600" y="307" width="10" height="10" rx="5" fill="#F7F7F7"/>
<path d="M569.023 381.801V358.528H578.205C579.97 358.528 581.473 358.865 582.716 359.539C583.958 360.206 584.905 361.134 585.557 362.324C586.216 363.505 586.545 364.869 586.545 366.414C586.545 367.96 586.212 369.324 585.545 370.505C584.879 371.687 583.913 372.608 582.648 373.267C581.39 373.926 579.867 374.255 578.08 374.255H572.227V370.312H577.284C578.231 370.312 579.011 370.149 579.625 369.824C580.246 369.49 580.708 369.032 581.011 368.449C581.322 367.858 581.477 367.18 581.477 366.414C581.477 365.642 581.322 364.967 581.011 364.392C580.708 363.808 580.246 363.358 579.625 363.039C579.004 362.714 578.216 362.551 577.261 362.551H573.943V381.801H569.023ZM594.98 381.801L588.321 358.528H593.696L597.548 374.699H597.741L601.991 358.528H606.594L610.832 374.733H611.037L614.889 358.528H620.264L613.605 381.801H608.81L604.378 366.585H604.196L599.776 381.801H594.98ZM624.565 381.801H619.293L627.327 358.528H633.668L641.69 381.801H636.418L630.588 363.846H630.406L624.565 381.801ZM624.236 372.653H636.69V376.494H624.236V372.653Z" fill="white"/>
</g>
<rect x="624" y="405" width="68" height="30" fill="#F9AD6A"/>
<rect x="624" y="454" width="68" height="30" fill="#F9AD6A"/>
<rect x="517" y="405" width="84" height="62" fill="#F9E07F"/>
<rect x="524" y="478" width="70" height="6" fill="#A5A3A3"/>
<rect x="524" y="478" width="70" height="6" fill="#A5A3A3"/>
<path d="M298.761 199V175.727H314.989V180.295H304.386V185.068H314.159V189.648H304.386V194.432H314.989V199H298.761ZM329.682 187.443V191.727H318.909V187.443H329.682ZM341.753 199.33C339.912 199.33 338.332 198.951 337.014 198.193C335.704 197.436 334.696 196.383 333.991 195.034C333.287 193.678 332.935 192.11 332.935 190.33C332.935 188.542 333.287 186.973 333.991 185.625C334.704 184.269 335.715 183.212 337.026 182.455C338.344 181.697 339.916 181.318 341.741 181.318C343.355 181.318 344.76 181.61 345.957 182.193C347.162 182.777 348.101 183.602 348.776 184.67C349.457 185.731 349.817 186.977 349.855 188.409H344.662C344.556 187.515 344.253 186.814 343.753 186.307C343.26 185.799 342.616 185.545 341.821 185.545C341.177 185.545 340.613 185.727 340.128 186.091C339.643 186.447 339.264 186.977 338.991 187.682C338.726 188.379 338.594 189.242 338.594 190.273C338.594 191.303 338.726 192.174 338.991 192.886C339.264 193.591 339.643 194.125 340.128 194.489C340.613 194.845 341.177 195.023 341.821 195.023C342.336 195.023 342.791 194.913 343.185 194.693C343.586 194.473 343.916 194.152 344.173 193.727C344.431 193.295 344.594 192.773 344.662 192.159H349.855C349.802 193.598 349.442 194.856 348.776 195.932C348.116 197.008 347.188 197.845 345.991 198.443C344.802 199.034 343.389 199.33 341.753 199.33ZM360.847 199.33C359.013 199.33 357.438 198.955 356.119 198.205C354.809 197.447 353.797 196.394 353.085 195.045C352.381 193.689 352.028 192.117 352.028 190.33C352.028 188.534 352.381 186.962 353.085 185.614C353.797 184.258 354.809 183.205 356.119 182.455C357.438 181.697 359.013 181.318 360.847 181.318C362.68 181.318 364.252 181.697 365.562 182.455C366.881 183.205 367.892 184.258 368.597 185.614C369.309 186.962 369.665 188.534 369.665 190.33C369.665 192.117 369.309 193.689 368.597 195.045C367.892 196.394 366.881 197.447 365.562 198.205C364.252 198.955 362.68 199.33 360.847 199.33ZM360.881 195.136C361.547 195.136 362.112 194.932 362.574 194.523C363.036 194.114 363.388 193.545 363.631 192.818C363.881 192.091 364.006 191.25 364.006 190.295C364.006 189.326 363.881 188.477 363.631 187.75C363.388 187.023 363.036 186.455 362.574 186.045C362.112 185.636 361.547 185.432 360.881 185.432C360.191 185.432 359.608 185.636 359.131 186.045C358.661 186.455 358.301 187.023 358.051 187.75C357.809 188.477 357.688 189.326 357.688 190.295C357.688 191.25 357.809 192.091 358.051 192.818C358.301 193.545 358.661 194.114 359.131 194.523C359.608 194.932 360.191 195.136 360.881 195.136ZM372.511 199V181.545H377.795V184.75H377.989C378.352 183.689 378.966 182.852 379.83 182.239C380.693 181.625 381.723 181.318 382.92 181.318C384.133 181.318 385.17 181.629 386.034 182.25C386.898 182.871 387.447 183.705 387.682 184.75H387.864C388.189 183.712 388.826 182.883 389.773 182.261C390.72 181.633 391.837 181.318 393.125 181.318C394.777 181.318 396.117 181.848 397.148 182.909C398.178 183.962 398.693 185.409 398.693 187.25V199H393.136V188.523C393.136 187.652 392.913 186.989 392.466 186.534C392.019 186.072 391.439 185.841 390.727 185.841C389.962 185.841 389.36 186.091 388.92 186.591C388.489 187.083 388.273 187.746 388.273 188.58V199H382.932V188.466C382.932 187.655 382.712 187.015 382.273 186.545C381.833 186.076 381.254 185.841 380.534 185.841C380.049 185.841 379.621 185.958 379.25 186.193C378.879 186.42 378.587 186.746 378.375 187.17C378.17 187.595 378.068 188.095 378.068 188.67V199H372.511ZM402.136 199V181.545H407.42V184.75H407.614C407.977 183.689 408.591 182.852 409.455 182.239C410.318 181.625 411.348 181.318 412.545 181.318C413.758 181.318 414.795 181.629 415.659 182.25C416.523 182.871 417.072 183.705 417.307 184.75H417.489C417.814 183.712 418.451 182.883 419.398 182.261C420.345 181.633 421.462 181.318 422.75 181.318C424.402 181.318 425.742 181.848 426.773 182.909C427.803 183.962 428.318 185.409 428.318 187.25V199H422.761V188.523C422.761 187.652 422.538 186.989 422.091 186.534C421.644 186.072 421.064 185.841 420.352 185.841C419.587 185.841 418.985 186.091 418.545 186.591C418.114 187.083 417.898 187.746 417.898 188.58V199H412.557V188.466C412.557 187.655 412.337 187.015 411.898 186.545C411.458 186.076 410.879 185.841 410.159 185.841C409.674 185.841 409.246 185.958 408.875 186.193C408.504 186.42 408.212 186.746 408 187.17C407.795 187.595 407.693 188.095 407.693 188.67V199H402.136ZM439.92 199.33C438.095 199.33 436.519 198.97 435.193 198.25C433.875 197.523 432.86 196.489 432.148 195.148C431.443 193.799 431.091 192.197 431.091 190.341C431.091 188.538 431.447 186.962 432.159 185.614C432.871 184.258 433.875 183.205 435.17 182.455C436.466 181.697 437.992 181.318 439.75 181.318C440.992 181.318 442.129 181.511 443.159 181.898C444.189 182.284 445.08 182.856 445.83 183.614C446.58 184.371 447.163 185.307 447.58 186.42C447.996 187.527 448.205 188.795 448.205 190.227V191.614H433.034V188.386H443.034C443.027 187.795 442.886 187.269 442.614 186.807C442.341 186.345 441.966 185.985 441.489 185.727C441.019 185.462 440.477 185.33 439.864 185.33C439.242 185.33 438.686 185.47 438.193 185.75C437.701 186.023 437.311 186.398 437.023 186.875C436.735 187.345 436.583 187.879 436.568 188.477V191.761C436.568 192.473 436.708 193.098 436.989 193.636C437.269 194.167 437.667 194.58 438.182 194.875C438.697 195.17 439.311 195.318 440.023 195.318C440.515 195.318 440.962 195.25 441.364 195.114C441.765 194.977 442.11 194.777 442.398 194.511C442.686 194.246 442.902 193.92 443.045 193.534L448.148 193.682C447.936 194.826 447.47 195.822 446.75 196.67C446.038 197.511 445.102 198.167 443.943 198.636C442.784 199.098 441.443 199.33 439.92 199.33ZM451.043 199V181.545H456.44V184.727H456.622C456.94 183.576 457.459 182.72 458.179 182.159C458.899 181.591 459.736 181.307 460.69 181.307C460.948 181.307 461.213 181.326 461.486 181.364C461.759 181.394 462.012 181.443 462.247 181.511V186.341C461.982 186.25 461.634 186.178 461.202 186.125C460.777 186.072 460.399 186.045 460.065 186.045C459.406 186.045 458.812 186.193 458.281 186.489C457.759 186.777 457.346 187.182 457.043 187.705C456.747 188.22 456.599 188.826 456.599 189.523V199H451.043ZM471.753 199.33C469.912 199.33 468.332 198.951 467.014 198.193C465.704 197.436 464.696 196.383 463.991 195.034C463.287 193.678 462.935 192.11 462.935 190.33C462.935 188.542 463.287 186.973 463.991 185.625C464.704 184.269 465.715 183.212 467.026 182.455C468.344 181.697 469.916 181.318 471.741 181.318C473.355 181.318 474.76 181.61 475.957 182.193C477.162 182.777 478.101 183.602 478.776 184.67C479.457 185.731 479.817 186.977 479.855 188.409H474.662C474.556 187.515 474.253 186.814 473.753 186.307C473.26 185.799 472.616 185.545 471.821 185.545C471.177 185.545 470.613 185.727 470.128 186.091C469.643 186.447 469.264 186.977 468.991 187.682C468.726 188.379 468.594 189.242 468.594 190.273C468.594 191.303 468.726 192.174 468.991 192.886C469.264 193.591 469.643 194.125 470.128 194.489C470.613 194.845 471.177 195.023 471.821 195.023C472.336 195.023 472.791 194.913 473.185 194.693C473.586 194.473 473.916 194.152 474.173 193.727C474.431 193.295 474.594 192.773 474.662 192.159H479.855C479.802 193.598 479.442 194.856 478.776 195.932C478.116 197.008 477.188 197.845 475.991 198.443C474.802 199.034 473.389 199.33 471.753 199.33ZM490.858 199.33C489.032 199.33 487.456 198.97 486.131 198.25C484.813 197.523 483.797 196.489 483.085 195.148C482.381 193.799 482.028 192.197 482.028 190.341C482.028 188.538 482.384 186.962 483.097 185.614C483.809 184.258 484.812 183.205 486.108 182.455C487.403 181.697 488.93 181.318 490.688 181.318C491.93 181.318 493.066 181.511 494.097 181.898C495.127 182.284 496.017 182.856 496.767 183.614C497.517 184.371 498.1 185.307 498.517 186.42C498.934 187.527 499.142 188.795 499.142 190.227V191.614H483.972V188.386H493.972C493.964 187.795 493.824 187.269 493.551 186.807C493.278 186.345 492.903 185.985 492.426 185.727C491.956 185.462 491.415 185.33 490.801 185.33C490.18 185.33 489.623 185.47 489.131 185.75C488.638 186.023 488.248 186.398 487.96 186.875C487.672 187.345 487.521 187.879 487.506 188.477V191.761C487.506 192.473 487.646 193.098 487.926 193.636C488.206 194.167 488.604 194.58 489.119 194.875C489.634 195.17 490.248 195.318 490.96 195.318C491.453 195.318 491.9 195.25 492.301 195.114C492.703 194.977 493.047 194.777 493.335 194.511C493.623 194.246 493.839 193.92 493.983 193.534L499.085 193.682C498.873 194.826 498.407 195.822 497.688 196.67C496.975 197.511 496.04 198.167 494.881 198.636C493.722 199.098 492.381 199.33 490.858 199.33Z" fill="white"/>
<defs>
<filter id="filter0_d_229_87" x="141" y="44" width="520" height="468" filterUnits="userSpaceOnUse" color-interpolation-filters="sRGB">
<feFlood flood-opacity="0" result="BackgroundImageFix"/>
<feColorMatrix in="SourceAlpha" type="matrix" values="0 0 0 0 0 0 0 0 0 0 0 0 0 0 0 0 0 0 127 0" result="hardAlpha"/>
<feOffset dy="5"/>
<feGaussianBlur stdDeviation="5"/>
<feComposite in2="hardAlpha" operator="out"/>
<feColorMatrix type="matrix" values="0 0 0 0 0 0 0 0 0 0 0 0 0 0 0 0 0 0 0.4 0"/>
<feBlend mode="normal" in2="BackgroundImageFix" result="effect1_dropShadow_229_87"/>
<feBlend mode="normal" in="SourceGraphic" in2="effect1_dropShadow_229_87" result="shape"/>
</filter>
<filter id="filter1_d_229_87" x="34" y="244" width="170" height="320" filterUnits="userSpaceOnUse" color-interpolation-filters="sRGB">
<feFlood flood-opacity="0" result="BackgroundImageFix"/>
<feColorMatrix in="SourceAlpha" type="matrix" values="0 0 0 0 0 0 0 0 0 0 0 0 0 0 0 0 0 0 127 0" result="hardAlpha"/>
<feOffset dy="5"/>
<feGaussianBlur stdDeviation="5"/>
<feComposite in2="hardAlpha" operator="out"/>
<feColorMatrix type="matrix" values="0 0 0 0 0 0 0 0 0 0 0 0 0 0 0 0 0 0 0.4 0"/>
<feBlend mode="normal" in2="BackgroundImageFix" result="effect1_dropShadow_229_87"/>
<feBlend mode="normal" in="SourceGraphic" in2="effect1_dropShadow_229_87" result="shape"/>
</filter>
<filter id="filter2_d_229_87" x="445" y="295" width="320" height="270" filterUnits="userSpaceOnUse" color-interpolation-filters="sRGB">
<feFlood flood-opacity="0" result="BackgroundImageFix"/>
<feColorMatrix in="SourceAlpha" type="matrix" values="0 0 0 0 0 0 0 0 0 0 0 0 0 0 0 0 0 0 127 0" result="hardAlpha"/>
<feOffset dy="5"/>
<feGaussianBlur stdDeviation="5"/>
<feComposite in2="hardAlpha" operator="out"/>
<feColorMatrix type="matrix" values="0 0 0 0 0 0 0 0 0 0 0 0 0 0 0 0 0 0 0.4 0"/>
<feBlend mode="normal" in2="BackgroundImageFix" result="effect1_dropShadow_229_87"/>
<feBlend mode="normal" in="SourceGraphic" in2="effect1_dropShadow_229_87" result="shape"/>
</filter>
</defs>
</svg>
