<svg width="800" height="600" viewBox="0 0 800 600" fill="none" xmlns="http://www.w3.org/2000/svg">
<rect width="800" height="600" fill="white"/>
<path d="M154 335H213.5C223.717 335 232 343.283 232 353.5V353.5C232 363.717 223.717 372 213.5 372H154V335Z" fill="#F9AD6A"/>
<rect x="137" y="336" width="33" height="35" rx="16.5" fill="#F9AD6A" stroke="white" stroke-width="2"/>
<path d="M612 347.603L634.835 324.768C635.811 323.792 637.394 323.792 638.37 324.768V324.768C639.347 325.744 639.347 327.327 638.37 328.303L615.536 351.138L612 347.603Z" fill="#F9AD6A"/>
<path d="M636.602 383.138L613.768 360.303C612.791 359.327 612.791 357.744 613.768 356.768V356.768C614.744 355.792 616.327 355.792 617.303 356.768L640.138 379.603L636.602 383.138Z" fill="#F9AD6A"/>
<path d="M596 408V311.5C596 310.119 597.119 309 598.5 309V309C599.881 309 601 310.119 601 311.5V408H596Z" fill="#F9AD6A"/>
<rect x="576" y="331" width="45" height="45" rx="22.5" fill="#F9AD6A"/>
<rect x="581" y="281" width="35" height="35" rx="17.5" fill="#F9AD6A"/>
<rect x="581" y="391" width="35" height="35" rx="17.5" fill="#F9AD6A"/>
<rect x="629" y="369" width="35" height="35" rx="17.5" fill="#F9AD6A"/>
<rect x="629" y="306" width="35" height="35" rx="17.5" fill="#F9AD6A"/>
<path d="M318.707 353.707C319.098 353.317 319.098 352.683 318.707 352.293L312.343 345.929C311.953 345.538 311.319 345.538 310.929 345.929C310.538 346.319 310.538 346.953 310.929 347.343L316.586 353L310.929 358.657C310.538 359.047 310.538 359.681 310.929 360.071C311.319 360.462 311.953 360.462 312.343 360.071L318.707 353.707ZM270 354L272.4 354L272.4 352L270 352L270 354ZM277.2 354L282 354L282 352L277.2 352L277.2 354ZM286.8 354L291.6 354L291.6 352L286.8 352L286.8 354ZM296.4 354L301.2 354L301.2 352L296.4 352L296.4 354ZM306 354L310.8 354L310.8 352L306 352L306 354ZM315.6 354L318 354L318 352L315.6 352L315.6 354ZM319.414 354.414C320.195 353.633 320.195 352.367 319.414 351.586L306.686 338.858C305.905 338.077 304.639 338.077 303.858 338.858C303.077 339.639 303.077 340.905 303.858 341.686L315.172 353L303.858 364.314C303.077 365.095 303.077 366.361 303.858 367.142C304.639 367.923 305.905 367.923 306.686 367.142L319.414 354.414ZM270 355L272.4 355L272.4 351L270 351L270 355ZM277.2 355L282 355L282 351L277.2 351L277.2 355ZM286.8 355L291.6 355L291.6 351L286.8 351L286.8 355ZM296.4 355L301.2 355L301.2 351L296.4 351L296.4 355ZM306 355L310.8 355L310.8 351L306 351L306 355ZM315.6 355L318 355L318 351L315.6 351L315.6 355Z" fill="#D46C4E"/>
<path d="M538.707 353.707C539.098 353.317 539.098 352.683 538.707 352.293L532.343 345.929C531.953 345.538 531.319 345.538 530.929 345.929C530.538 346.319 530.538 346.953 530.929 347.343L536.586 353L530.929 358.657C530.538 359.047 530.538 359.681 530.929 360.071C531.319 360.462 531.953 360.462 532.343 360.071L538.707 353.707ZM490 354L492.4 354L492.4 352L490 352L490 354ZM497.2 354L502 354L502 352L497.2 352L497.2 354ZM506.8 354L511.6 354L511.6 352L506.8 352L506.8 354ZM516.4 354L521.2 354L521.2 352L516.4 352L516.4 354ZM526 354L530.8 354L530.8 352L526 352L526 354ZM535.6 354L538 354L538 352L535.6 352L535.6 354ZM539.414 354.414C540.195 353.633 540.195 352.367 539.414 351.586L526.686 338.858C525.905 338.077 524.639 338.077 523.858 338.858C523.077 339.639 523.077 340.905 523.858 341.686L535.172 353L523.858 364.314C523.077 365.095 523.077 366.361 523.858 367.142C524.639 367.923 525.905 367.923 526.686 367.142L539.414 354.414ZM490 355L492.4 355L492.4 351L490 351L490 355ZM497.2 355L502 355L502 351L497.2 351L497.2 355ZM506.8 355L511.6 355L511.6 351L506.8 351L506.8 355ZM516.4 355L521.2 355L521.2 351L516.4 351L516.4 355ZM526 355L530.8 355L530.8 351L526 351L526 355ZM535.6 355L538 355L538 351L535.6 351L535.6 355Z" fill="#D46C4E"/>
<path d="M360.125 360.466V353.375L384.807 343.011V350.767L368.511 356.852L368.767 356.477V357.381L368.511 356.989L384.807 363.091V370.83L360.125 360.466ZM418.067 334.455L406.817 376.25H399.709L410.959 334.455H418.067ZM447.338 360.466L422.656 370.83V363.091L438.952 356.989L438.713 357.381V356.477L438.952 356.852L422.656 350.767V343.011L447.338 353.375V360.466Z" fill="#F9AD6A"/>
<ellipse cx="385.309" cy="224.413" rx="53.9265" ry="50.4135" fill="#D46C4E"/>
<ellipse cx="447.75" cy="244.991" rx="48.25" ry="36.0096" fill="#D46C4E"/>
<ellipse cx="349.358" cy="244.99" rx="36.0096" ry="46.3578" transform="rotate(-90 349.358 244.99)" fill="#D46C4E"/>
<rect x="346.52" y="219.269" width="104.069" height="61.7308" fill="#D46C4E"/>
<path d="M352.193 262H343.125L354.903 227.091H366.136L377.915 262H368.847L360.648 235.886H360.375L352.193 262ZM350.983 248.261H369.938V254.67H350.983V248.261ZM386.246 262L376.087 227.091H385.411L390.678 249.966H390.967L396.984 227.091H404.587L410.604 250.017H410.893L416.178 227.091H425.484L415.342 262H407.212L400.922 240.83H400.649L394.359 262H386.246ZM447.418 237.557C447.304 236.307 446.798 235.335 445.901 234.642C445.014 233.938 443.747 233.585 442.099 233.585C441.009 233.585 440.099 233.727 439.372 234.011C438.645 234.295 438.099 234.688 437.736 235.188C437.372 235.676 437.185 236.239 437.173 236.875C437.151 237.398 437.253 237.858 437.48 238.256C437.719 238.653 438.06 239.006 438.503 239.312C438.957 239.608 439.503 239.869 440.139 240.097C440.776 240.324 441.491 240.523 442.287 240.693L445.287 241.375C447.014 241.75 448.537 242.25 449.855 242.875C451.185 243.5 452.298 244.244 453.196 245.108C454.105 245.972 454.793 246.966 455.259 248.091C455.724 249.216 455.963 250.477 455.974 251.875C455.963 254.08 455.406 255.972 454.304 257.551C453.202 259.131 451.616 260.341 449.548 261.182C447.491 262.023 445.009 262.443 442.099 262.443C439.179 262.443 436.634 262.006 434.463 261.131C432.293 260.256 430.605 258.926 429.401 257.142C428.196 255.358 427.577 253.102 427.543 250.375H435.622C435.69 251.5 435.991 252.438 436.526 253.188C437.06 253.938 437.793 254.506 438.724 254.892C439.668 255.278 440.759 255.472 441.997 255.472C443.134 255.472 444.099 255.318 444.895 255.011C445.702 254.705 446.321 254.278 446.753 253.733C447.185 253.187 447.406 252.562 447.418 251.858C447.406 251.199 447.202 250.636 446.804 250.17C446.406 249.693 445.793 249.284 444.963 248.943C444.145 248.591 443.099 248.267 441.827 247.972L438.179 247.119C435.156 246.426 432.776 245.307 431.037 243.761C429.298 242.205 428.435 240.102 428.446 237.455C428.435 235.295 429.014 233.403 430.185 231.778C431.355 230.153 432.974 228.886 435.043 227.977C437.111 227.068 439.469 226.614 442.116 226.614C444.821 226.614 447.168 227.074 449.156 227.994C451.156 228.903 452.707 230.182 453.81 231.83C454.912 233.477 455.474 235.386 455.497 237.557H447.418Z" fill="white"/>
</svg>
